<svg id="_967880944" xmlns="http://www.w3.org/2000/svg" width="223" height="127.188" viewBox="0 0 223 127.188">
  <path id="Path_3" data-name="Path 3" d="M14523.626,7638H14501v2.949h22.625Z" transform="translate(-14400.553 -7633.139)" fill="#a82241"/>
  <path id="Path_4" data-name="Path 4" d="M14469.385,7488H14443v2.949h26.385Z" transform="translate(-14344.433 -7488)" fill="#a82241"/>
  <path id="Path_5" data-name="Path 5" d="M14780.335,7815.688l2.367.907V7807h-4.7v9.595Z" transform="translate(-14668.575 -7796.66)" fill="#a82241"/>
  <path id="Path_6" data-name="Path 6" d="M15005.7,7819.383V7807h-4.7v10.567Z" transform="translate(-14884.347 -7796.66)" fill="#a82241"/>
  <path id="Path_7" data-name="Path 7" d="M14558.7,7817.567V7807h-4.7v12.383Z" transform="translate(-14451.836 -7796.66)" fill="#a82241"/>
  <path id="Path_8" data-name="Path 8" d="M14462.436,8192.891l-10.113-3.891-10.113,3.891L14439,8214.12c7.035,4.343,11.768,11.248,12.48,19.092h.291v-21.847c-.842-.908-2.432-2.788-2.432-4.96a2.982,2.982,0,0,1,5.965,0c0,2.172-1.588,4.052-2.432,4.96v21.847h.293c.713-7.844,5.445-14.749,12.479-19.092Z" transform="translate(-14340.562 -8166.279)" fill="#a82241"/>
  <path id="Path_9" data-name="Path 9" d="M11402,10258.88V10257h8.232v1.879h-3.111v9.3h-1.978v-9.3Z" transform="translate(-11402.001 -10167.25)" fill="#fff"/>
  <path id="Path_10" data-name="Path 10" d="M11656.729,10262.577l-.52,1.619h2.691l-.485-1.619-.844-2.822Zm3.469,5.605-.713-2.172h-3.825l-.713,2.172H11653l3.728-11.182h1.749l3.762,11.182Z" transform="translate(-11644.866 -10167.25)" fill="#fff"/>
  <path id="Path_11" data-name="Path 11" d="M12012.728,10258.815h-1.749v3.437h1.749a1.544,1.544,0,0,0,1.136-.357,1.341,1.341,0,0,0,.389-1v-.714a1.341,1.341,0,0,0-.389-1A1.54,1.54,0,0,0,12012.728,10258.815Zm-1.749,5.252v4.115H12009V10257h3.727a3.805,3.805,0,0,1,2.626.843,3.047,3.047,0,0,1,.908,2.333v.714a3.274,3.274,0,0,1-.421,1.687,2.753,2.753,0,0,1-1.167,1.1,42.41,42.41,0,0,1,2.3,4.5h-2.269a42.792,42.792,0,0,0-1.945-4.115Z" transform="translate(-11989.327 -10167.25)" fill="#fff"/>
  <path id="Path_12" data-name="Path 12" d="M12336.964,10268.183l-2.819-4.895c-.161.229-.357.422-.551.648-.2.2-.389.422-.616.648v3.6H12331V10257h1.977v5.315a31.975,31.975,0,0,0,2.139-2.723,20.294,20.294,0,0,0,1.558-2.593h2.14a29.92,29.92,0,0,1-1.493,2.657,26.179,26.179,0,0,1-1.685,2.333l3.728,6.191Z" transform="translate(-12300.89 -10167.25)" fill="#fff"/>
  <path id="Path_13" data-name="Path 13" d="M12638.387,10256.572a3.268,3.268,0,0,0-.52-2.043,2.348,2.348,0,0,0-3.3,0,3.268,3.268,0,0,0-.52,2.043v2.365a3.393,3.393,0,0,0,.52,2.041,2.344,2.344,0,0,0,3.3,0,3.393,3.393,0,0,0,.52-2.041Zm2.042,0v2.365a5,5,0,0,1-1.07,3.369,4,4,0,0,1-3.144,1.232,3.953,3.953,0,0,1-3.145-1.232,5.006,5.006,0,0,1-1.069-3.369v-2.365a4.956,4.956,0,0,1,1.069-3.371,3.944,3.944,0,0,1,3.145-1.2,3.985,3.985,0,0,1,3.144,1.2A4.952,4.952,0,0,1,12640.429,10256.572Z" transform="translate(-12592.134 -10162.41)" fill="#fff"/>
  <path id="Path_14" data-name="Path 14" d="M12953.983,10261.409l.646,4.18,2.236-8.588h1.783l2.205,8.523.713-4.115.844-4.408h2.008l-2.494,11.182h-2.043l-2.172-8.331-2.172,8.331h-2.008L12951,10257h2.139Z" transform="translate(-12900.793 -10167.25)" fill="#fff"/>
  <path id="Path_15" data-name="Path 15" d="M13411.437,10261.693c1.3,0,1.912-.455,1.912-1.426a1.322,1.322,0,0,0-.291-.908,2.3,2.3,0,0,0-1.037-.551l-1.361-.455a3.116,3.116,0,0,1-2.432-3.178,3.18,3.18,0,0,1,.875-2.3,3.722,3.722,0,0,1,2.723-.875,6.286,6.286,0,0,1,1.523.162,8.134,8.134,0,0,1,1.621.553l-.617,1.684a13.457,13.457,0,0,0-1.361-.453,4.316,4.316,0,0,0-1.1-.129,2.426,2.426,0,0,0-1.2.26,1.111,1.111,0,0,0-.453,1,1.154,1.154,0,0,0,.324.844,2.237,2.237,0,0,0,1,.582l1.361.453a3.554,3.554,0,0,1,1.816,1.168,3.3,3.3,0,0,1,.615,2.074,3.056,3.056,0,0,1-.939,2.4,4.015,4.015,0,0,1-2.949.939,7.181,7.181,0,0,1-1.621-.193,9.583,9.583,0,0,1-1.848-.648l.582-1.719a10.26,10.26,0,0,0,1.59.551A5.5,5.5,0,0,0,13411.437,10261.693Z" transform="translate(-13342.981 -10162.41)" fill="#fff"/>
  <path id="Path_16" data-name="Path 16" d="M13701.043,10257.971a3.276,3.276,0,0,0,.52,1.943,1.973,1.973,0,0,0,1.748.779,4.222,4.222,0,0,0,1.039-.131,9.129,9.129,0,0,0,1.3-.453l.615,1.717a8.162,8.162,0,0,1-1.619.553,6.091,6.091,0,0,1-1.461.193,4.25,4.25,0,0,1-2.3-.617,3.588,3.588,0,0,1-1.395-1.619,5.545,5.545,0,0,1-.484-2.365v-2.369a5.441,5.441,0,0,1,.484-2.365,3.429,3.429,0,0,1,1.395-1.621,4.267,4.267,0,0,1,2.3-.615,7.082,7.082,0,0,1,1.395.162,9.353,9.353,0,0,1,1.588.551l-.615,1.752a7.52,7.52,0,0,0-1.264-.455,3.354,3.354,0,0,0-.975-.129,2.032,2.032,0,0,0-1.748.746,3.374,3.374,0,0,0-.52,1.975Z" transform="translate(-13624.549 -10161.442)" fill="#fff"/>
  <path id="Path_17" data-name="Path 17" d="M13961.883,10257l-3.437,6.709v4.473h-1.977v-4.44L13953,10257h2.107l2.43,4.764,2.3-4.764Z" transform="translate(-13870.316 -10167.25)" fill="#fff"/>
  <path id="Path_18" data-name="Path 18" d="M14376.431,10254.756a1.7,1.7,0,0,0,.229.811,2.763,2.763,0,0,0,.713.906,6.119,6.119,0,0,0,.873-.646,1.26,1.26,0,0,0,.391-.486.885.885,0,0,0,.131-.52.977.977,0,0,0-.324-.842,1.189,1.189,0,0,0-.812-.291,1.261,1.261,0,0,0-.842.291A.9.9,0,0,0,14376.431,10254.756Zm.875,7.033a1.932,1.932,0,0,0,1.1-.324,1.223,1.223,0,0,0,.518-.842,1.7,1.7,0,0,0-.26-1.2l1.525-.939,2.494,4.861h-2.041l-.713-1.621a2.4,2.4,0,0,1-.973,1.3,3.51,3.51,0,0,1-4.115-.324,2.777,2.777,0,0,1-.844-2.141,3.375,3.375,0,0,1,.486-1.717,4.819,4.819,0,0,1,1.654-1.557,4.106,4.106,0,0,1-1.168-1.264,2.513,2.513,0,0,1-.357-1.361,2.818,2.818,0,0,1,.324-1.361,2.978,2.978,0,0,1,1.037-.971,3.421,3.421,0,0,1,1.621-.326,3.244,3.244,0,0,1,2.236.715,2.5,2.5,0,0,1,.811,2.008,2.772,2.772,0,0,1-.293,1.33,3.07,3.07,0,0,1-.842,1,7.41,7.41,0,0,1-1.232.908l-1.133.746a2.256,2.256,0,0,0-.973.939,1.677,1.677,0,0,0-.26.842,1.136,1.136,0,0,0,.389.973A1.689,1.689,0,0,0,14377.306,10261.789Z" transform="translate(-14277.67 -10162.41)" fill="#fff"/>
  <path id="Path_19" data-name="Path 19" d="M14821.965,10268.183l-2.82-4.895c-.193.229-.389.422-.551.648-.2.2-.42.422-.617.648v3.6H14816V10257h1.975v5.315a31.636,31.636,0,0,0,2.141-2.723,24.551,24.551,0,0,0,1.525-2.593h2.172a30.592,30.592,0,0,1-1.525,2.657,17.446,17.446,0,0,1-1.686,2.333l3.729,6.191Z" transform="translate(-14705.345 -10167.25)" fill="#fff"/>
  <path id="Path_20" data-name="Path 20" d="M15148.45,10266.3v1.879H15142V10257h1.979v9.3Z" transform="translate(-15020.776 -10167.25)" fill="#fff"/>
  <path id="Path_21" data-name="Path 21" d="M15414.979,10268.183H15413V10257h1.979Z" transform="translate(-15282.992 -10167.25)" fill="#fff"/>
  <path id="Path_22" data-name="Path 22" d="M15584.174,10257l3.111,7.648,3.111-7.648h2.172v11.182h-1.912v-4.278l.258-3.921-2.787,6.9h-1.75l-2.723-6.9.227,3.921v4.278H15582V10257Z" transform="translate(-15446.517 -10167.25)" fill="#fff"/>
  <path id="Path_23" data-name="Path 23" d="M15995.164,10266.3v1.879H15988v-1.718l4.666-7.585h-4.506V10257H15995v1.717l-4.7,7.586Z" transform="translate(-15839.356 -10167.25)" fill="#fff"/>
  <path id="Path_24" data-name="Path 24" d="M16253.727,10262.577l-.518,1.619h2.723l-.52-1.619-.811-2.822Zm3.469,5.605-.68-2.172h-3.857l-.682,2.172H16250l3.76-11.182h1.75l3.762,11.182Z" transform="translate(-16092.863 -10167.25)" fill="#fff"/>
  <path id="Path_25" data-name="Path 25" d="M16569,10417h4.992v1.652H16569Z" transform="translate(-16401.525 -10322.063)" fill="#fff"/>
  <path id="Path_26" data-name="Path 26" d="M16795.043,10257.971a3.289,3.289,0,0,0,.516,1.943,1.979,1.979,0,0,0,1.75.779,3.781,3.781,0,0,0,1.008-.131,9.418,9.418,0,0,0,1.328-.453l.617,1.717a8.218,8.218,0,0,1-1.621.553,6.066,6.066,0,0,1-1.461.193,4.255,4.255,0,0,1-2.3-.617,3.392,3.392,0,0,1-1.391-1.619,5.46,5.46,0,0,1-.488-2.365v-2.369a5.358,5.358,0,0,1,.488-2.365,3.252,3.252,0,0,1,1.391-1.621,4.272,4.272,0,0,1,2.3-.615,7.016,7.016,0,0,1,1.395.162,9.311,9.311,0,0,1,1.59.551l-.617,1.752a7.413,7.413,0,0,0-1.266-.455,3.457,3.457,0,0,0-.973-.129,2.038,2.038,0,0,0-1.75.746,3.388,3.388,0,0,0-.516,1.975Z" transform="translate(-16618.262 -10161.442)" fill="#fff"/>
  <path id="Path_27" data-name="Path 27" d="M17095.98,10268.183H17094V10257h1.98Z" transform="translate(-16909.506 -10167.25)" fill="#fff"/>
  <path id="Path_28" data-name="Path 28" d="M17269.484,10266.3v1.879H17263V10257h6.32v1.879h-4.344v2.69h3.857v1.879h-3.857v2.854Z" transform="translate(-17073.027 -10167.25)" fill="#fff"/>
  <path id="Path_29" data-name="Path 29" d="M17514,10268.377v-1.912a3.008,3.008,0,0,0,1.914-.486,2.241,2.241,0,0,0,.613-1.814V10257h1.977v7.163a5.784,5.784,0,0,1-.387,2.236,3.034,3.034,0,0,1-1.4,1.458A6.145,6.145,0,0,1,17514,10268.377Z" transform="translate(-17315.895 -10167.25)" fill="#fff"/>
  <path id="Path_30" data-name="Path 30" d="M17755.7,10258.88h-1.719v3.63h1.719a1.615,1.615,0,0,0,1.1-.355,1.369,1.369,0,0,0,.389-1.038v-.875a1.337,1.337,0,0,0-.389-1A1.611,1.611,0,0,0,17755.7,10258.88Zm-3.7,9.3V10257h3.7a3.646,3.646,0,0,1,2.658.875,3.227,3.227,0,0,1,.875,2.365v.875a3.312,3.312,0,0,1-.875,2.4,3.65,3.65,0,0,1-2.658.873h-1.719v3.793Z" transform="translate(-17546.178 -10167.25)" fill="#fff"/>
  <path id="Path_31" data-name="Path 31" d="M17999.729,10262.577l-.486,1.619h2.689l-.518-1.619-.811-2.822Zm3.469,5.605-.684-2.172h-3.855l-.682,2.172H17996l3.758-11.182h1.75l3.76,11.182Z" transform="translate(-17782.27 -10167.25)" fill="#fff"/>
  <path id="Path_32" data-name="Path 32" d="M13661,11072.215V11061h1.523c.973,1.426,1.912,2.885,2.754,4.311.844,1.459,1.621,2.983,2.367,4.539l-.16-4.278V11061h1.393v11.215h-1.49c-.779-1.587-1.59-3.144-2.4-4.666s-1.717-3.016-2.689-4.475l.129,4.571v4.569Z" transform="translate(-13587.78 -10945.189)" fill="#fff"/>
  <path id="Path_33" data-name="Path 33" d="M14007.512,11153.761a2.91,2.91,0,0,0-.52-1.849,1.838,1.838,0,0,0-1.555-.647,1.816,1.816,0,0,0-1.525.647,2.922,2.922,0,0,0-.518,1.849v.972a2.839,2.839,0,0,0,.518,1.881,1.842,1.842,0,0,0,1.525.681,1.862,1.862,0,0,0,1.555-.681,2.828,2.828,0,0,0,.52-1.881Zm1.393,0v.972a3.877,3.877,0,0,1-.906,2.756,3.728,3.728,0,0,1-5.09,0,3.877,3.877,0,0,1-.906-2.756v-.972a4.041,4.041,0,0,1,.875-2.724,3.272,3.272,0,0,1,2.561-1.037,3.184,3.184,0,0,1,2.561,1.037A3.9,3.9,0,0,1,14008.9,11153.761Z" transform="translate(-13917.729 -11031.304)" fill="#fff"/>
  <path id="Path_34" data-name="Path 34" d="M14272.674,11095.146a4.1,4.1,0,0,1-1.947.453,2.168,2.168,0,0,1-1.393-.356,1.685,1.685,0,0,1-.713-.972,3.533,3.533,0,0,1-.227-1.361v-4.44H14267v-1.168h1.395v-2.3h1.361v2.3h2.656v1.168h-2.656v4.408a1.68,1.68,0,0,0,.291,1.165,1.105,1.105,0,0,0,.908.325,4.458,4.458,0,0,0,.615-.064,3.522,3.522,0,0,0,.682-.261Z" transform="translate(-14174.138 -10968.412)" fill="#fff"/>
  <path id="Path_35" data-name="Path 35" d="M14487.33,11156.094a1.327,1.327,0,0,0,.293.908.88.88,0,0,0,.744.356,2.715,2.715,0,0,0,1-.26,5.816,5.816,0,0,0,1.363-1.037v-1.038a11.7,11.7,0,0,0-1.979-.193,1.547,1.547,0,0,0-1.068.324A1.238,1.238,0,0,0,14487.33,11156.094Zm5.412,2.334a2.05,2.05,0,0,1-1.23-.356,1.963,1.963,0,0,1-.615-.844,5.94,5.94,0,0,1-1.459.973,3.386,3.386,0,0,1-1.328.292,1.888,1.888,0,0,1-1.59-.679,2.9,2.9,0,0,1-.518-1.687,2.96,2.96,0,0,1,.26-1.232,1.844,1.844,0,0,1,.842-.811,3.532,3.532,0,0,1,1.588-.323c.293,0,.615.032.973.064s.713.1,1.07.162v-1.136a1.509,1.509,0,0,0-.389-1.229,1.884,1.884,0,0,0-1.2-.357,5.716,5.716,0,0,0-2.332.583l-.455-1.135a11.58,11.58,0,0,1,1.459-.518,5.11,5.11,0,0,1,1.393-.2,3.365,3.365,0,0,1,1.783.39,2.116,2.116,0,0,1,.844,1,3.758,3.758,0,0,1,.227,1.361v3.533a1.023,1.023,0,0,0,.162.648.63.63,0,0,0,.582.259h.164v1.232Z" transform="translate(-14386.041 -11031.304)" fill="#fff"/>
  <path id="Path_36" data-name="Path 36" d="M14777.279,11151.361a4.244,4.244,0,0,0-1.428.261,4.847,4.847,0,0,0-1.49,1v5.705H14773v-8.136h1.3v1.3a5.225,5.225,0,0,1,1.523-1.135,3.435,3.435,0,0,1,1.459-.357Z" transform="translate(-14663.736 -11031.304)" fill="#fff"/>
  <path id="Path_37" data-name="Path 37" d="M14971.428,11058.669h-1.33v-8.135h1.33Zm.1-10.145H14970V11047h1.521Z" transform="translate(-14854.353 -10931.643)" fill="#fff"/>
  <path id="Path_38" data-name="Path 38" d="M15119.122,11164.136V11163a5.494,5.494,0,0,1-1.523,1,3.45,3.45,0,0,1-1.361.291,1.987,1.987,0,0,1-1.652-.712,3.038,3.038,0,0,1-.584-2.01V11156h1.361v5.38a2.274,2.274,0,0,0,.293,1.265,1.089,1.089,0,0,0,.906.39,2.594,2.594,0,0,0,1.037-.229,6.651,6.651,0,0,0,1.459-.907v-5.9h1.328v8.135Z" transform="translate(-14993.685 -11037.11)" fill="#fff"/>
  <path id="Path_39" data-name="Path 39" d="M15391.82,11157.294c1.07,0,1.621-.357,1.621-1.1a1.049,1.049,0,0,0-.293-.778,2.835,2.835,0,0,0-1.068-.454l-.908-.259a2.869,2.869,0,0,1-1.521-.843,2.339,2.339,0,0,1-.488-1.491,2.4,2.4,0,0,1,.291-1.166,2.007,2.007,0,0,1,.877-.843,3.265,3.265,0,0,1,1.588-.357,6.227,6.227,0,0,1,1.3.161,5.259,5.259,0,0,1,1.295.454l-.42,1.136a5.388,5.388,0,0,0-2.172-.52c-.939,0-1.426.357-1.426,1.07a1.215,1.215,0,0,0,.258.713,1.82,1.82,0,0,0,.973.454l.908.226a3.224,3.224,0,0,1,1.621.876,2.346,2.346,0,0,1,.518,1.523,2.55,2.55,0,0,1-.291,1.232,2.255,2.255,0,0,1-.939.874,4.032,4.032,0,0,1-1.686.292,6.905,6.905,0,0,1-1.428-.129,6.759,6.759,0,0,1-1.426-.487l.357-1.134a9.535,9.535,0,0,0,1.264.421A4.883,4.883,0,0,0,15391.82,11157.294Z" transform="translate(-15259.77 -11031.304)" fill="#fff"/>
  <path id="Path_40" data-name="Path 40" d="M15624.675,11162.97v1.166H15619v-1.036l3.922-5.931h-3.76V11156h5.35v1.068l-3.922,5.9Z" transform="translate(-15482.316 -11037.11)" fill="#fff"/>
  <path id="Path_41" data-name="Path 41" d="M15858.309,11151.2a1.691,1.691,0,0,0-1.428.615,3.039,3.039,0,0,0-.551,1.75h3.7a3.5,3.5,0,0,0,.064-.551,1.7,1.7,0,0,0-.518-1.36A1.942,1.942,0,0,0,15858.309,11151.2Zm3.045,6.676a6.658,6.658,0,0,1-1.49.487,6.918,6.918,0,0,1-1.361.129,3.175,3.175,0,0,1-2.625-1,4.024,4.024,0,0,1-.875-2.756v-.972a4.052,4.052,0,0,1,.875-2.724,3,3,0,0,1,2.432-1.037,3.621,3.621,0,0,1,1.555.357,2.516,2.516,0,0,1,1.1,1,3.294,3.294,0,0,1,.422,1.783,7.314,7.314,0,0,1-.193,1.556h-4.863v.032a2.925,2.925,0,0,0,.52,1.913,2.081,2.081,0,0,0,1.686.648,8.064,8.064,0,0,0,1.166-.131,5.5,5.5,0,0,0,1.232-.421Z" transform="translate(-15710.667 -11031.304)" fill="#fff"/>
  <path id="Path_42" data-name="Path 42" d="M12657.021,11206.623H12639V11205h18.021Z" transform="translate(-12598.905 -11084.521)" fill="#a82241"/>
  <path id="Path_43" data-name="Path 43" d="M16523.023,11206.623H16505V11205h18.023Z" transform="translate(-16339.597 -11084.521)" fill="#a82241"/>
</svg>
